<?xml version="1.0" encoding="utf-8"?>
<!-- Generator: Adobe Illustrator 19.2.1, SVG Export Plug-In . SVG Version: 6.00 Build 0)  -->
<svg version="1.1" id="layer" xmlns="http://www.w3.org/2000/svg" xmlns:xlink="http://www.w3.org/1999/xlink" x="0px" y="0px"
	 viewBox="0 0 652 652" style="enable-background:new 0 0 652 652;" xml:space="preserve">
<style type="text/css">
	.st0{fill:#3448C5;}
</style>
<path class="st0" d="M219.4,304.4c-12.2,0-21.8,10.4-21.8,23.8c0,13.3,9.6,23.7,21.8,23.7c6.3,0,12.1-2.8,16.3-8
	c0.3-0.4,0.8-0.4,1.2-0.1l6.8,5.4c0.4,0.3,0.4,0.8,0.1,1.2c-6,7.7-15,12.2-24.7,12.2c-17.9,0-32.4-15.4-32.4-34.4
	c0-19,14.6-34.4,32.4-34.4c9.7,0,18.7,4.4,24.7,12.2c0.3,0.4,0.2,0.9-0.1,1.2l-6.8,5.5c-0.4,0.3-0.9,0.2-1.2-0.1
	C231.6,307.3,225.8,304.4,219.4,304.4 M264.6,291.8H253c-0.6,0-1.1,0.4-1.1,0.8v68.1c0,0.5,0.5,0.8,1.1,0.8h11.6
	c0.6,0,1.1-0.4,1.1-0.8v-68.1C265.8,292.2,265.3,291.8,264.6,291.8 M304.1,338.9c0-7.7-5.4-13.4-12.6-13.4
	c-7.1,0-12.5,5.8-12.5,13.4c0,7.8,5.4,13.7,12.5,13.7C298.7,352.6,304.1,346.7,304.1,338.9 M291.5,315.4c13.1,0,23,10.1,23,23.5
	c0,13.5-9.9,23.8-23,23.8c-13.1,0-22.9-10.2-22.9-23.8C268.5,323.5,280.1,315.4,291.5,315.4 M360.8,316.4h-8.6
	c-0.5,0-0.8,0.4-0.8,0.8v22.8c0,8.9-6.2,12.1-11.4,12.1c-4.7,0-9.4-3.5-9.4-11.4v-23.5c0-0.5-0.4-0.8-0.8-0.8h-8.6
	c-0.5,0-0.9,0.4-0.9,0.8v24.6c0,13.5,6.1,20.9,17.2,20.9c4,0,10.6-2.3,13-7.4l0.8,0.2v5.3c0,0.5,0.4,0.8,0.8,0.8h8.6
	c0.5,0,0.8-0.4,0.8-0.8v-43.6C361.6,316.8,361.2,316.4,360.8,316.4 M403.9,338.9c0-8.3-6.7-13.4-12.9-13.4c-7,0-12.5,5.9-12.5,13.4
	c0,7.6,5.5,13.6,12.5,13.6C397.3,352.5,403.9,347.4,403.9,338.9 M413.5,291.8c0.5,0,0.8,0.4,0.8,0.8v68.1c0,0.5-0.4,0.8-0.8,0.8
	h-8.6c-0.5,0-0.8-0.4-0.8-0.8v-6.1l-0.5,0.9c-3.2,5.2-9.7,7-14.3,7c-12.1,0-21.2-10.2-21.2-23.7c0-15.5,10.6-23.6,21.1-23.6
	c6.1,0,11.7,2.7,14.3,6.9l0.5,0.8v-30.5c0-0.5,0.4-0.8,0.8-0.8H413.5 M438.3,316.4h-11.6c-0.6,0-1.1,0.4-1.1,0.8v43.6
	c0,0.5,0.5,0.8,1.1,0.8h11.6c0.6,0,1.1-0.4,1.1-0.8v-43.6C439.5,316.8,439,316.4,438.3,316.4 M430.9,293.2c-3.9,0-7,3-7,6.9
	c0,3.8,3.1,6.9,7,6.9c3.9,0,6.9-3,6.9-6.9C437.8,296.2,434.8,293.2,430.9,293.2 M471.2,315.4c-3.8,0-10.5,2-13,7.4l-0.8-0.2v-5.4
	c0-0.5-0.4-0.8-0.8-0.8h-8.6c-0.5,0-0.8,0.4-0.8,0.8v43.6c0,0.5,0.4,0.8,0.8,0.8h8.6c0.5,0,0.8-0.4,0.8-0.8V338
	c0-8.8,6.2-12,11.4-12c4.7,0,9.4,3.5,9.4,11.3v23.5c0,0.5,0.4,0.8,0.8,0.8h8.6c0.5,0,0.8-0.4,0.8-0.8v-24.6
	C488.4,322.8,482.3,315.4,471.2,315.4 M530.1,338.9c0-8.3-6.7-13.4-12.9-13.4c-7,0-12.5,5.9-12.5,13.4c0,7.6,5.5,13.6,12.5,13.6
	C523.6,352.5,530.1,347.4,530.1,338.9 M539.8,316.4c0.5,0,0.8,0.4,0.8,0.8v43.6c0,0.5-0.4,0.8-0.8,0.8h-8.6c-0.5,0-0.8-0.4-0.8-0.8
	v-6.1l-0.5,0.9c-3.2,5.2-9.7,7-14.3,7c-12.1,0-21.2-10.2-21.2-23.7c0-15.5,10.6-23.6,21.1-23.6c6.1,0,11.7,2.7,14.3,6.9l0.5,0.8
	v-5.9c0-0.5,0.4-0.8,0.8-0.8H539.8 M579,316.5c-1.6-0.7-3.9-1.1-6.2-1.1c-5.7,0-9.9,3.4-12,9.9l-0.8-0.1v-8c0-0.5-0.4-0.8-0.8-0.8
	h-8.6c-0.5,0-0.8,0.4-0.8,0.8v43.6c0,0.5,0.4,0.8,0.8,0.8h8.7c0.5,0,0.8-0.4,0.8-0.8v-14.9c0-17.8,7.1-20.4,11.3-20.4
	c1.8,0,3.5,0.4,5.2,1.1c0.2,0.1,0.5,0.1,0.7,0c0.2-0.1,0.4-0.3,0.4-0.6l1.7-8.5C579.5,317.1,579.3,316.7,579,316.5 M626.7,316.8
	c-0.2-0.2-0.4-0.4-0.7-0.4h-9.3c-0.3,0-0.7,0.2-0.8,0.5l-11.2,29l-11.3-29c-0.1-0.3-0.4-0.5-0.8-0.5h-9.4c-0.3,0-0.5,0.1-0.7,0.4
	c-0.2,0.2-0.2,0.5-0.1,0.8l16.8,41.3l-9.3,24.1c-0.1,0.3-0.1,0.5,0.1,0.8c0.2,0.2,0.4,0.4,0.7,0.4h9c0.3,0,0.7-0.2,0.8-0.5l26.2-66
	C626.8,317.3,626.8,317,626.7,316.8 M144.3,301.7c-6.2-19.7-24.9-33.7-45.8-33.7c-17.8,0-33.8,9.5-42.2,25
	c-16.8,3-29.5,18-29.5,35.2c0,14,8.2,26.9,20.9,32.7l0.9,0.4h0v-10.2c-7.8-4.8-12.7-13.5-12.7-22.9c0-13.5,10.5-25.1,23.9-26.5
	l2.5-0.3l1.1-2.3c6.5-13.6,20-22.1,35.1-22.1c17.8,0,33.8,12.6,37.9,30l0.8,3.5l3.5,0.1c12,0.2,21.8,10.1,21.8,22.1
	c0,8.5-4.9,15.4-13.2,18.9v9.7l0.6-0.2c13.4-4.4,21.7-15.2,21.7-28.4C171.6,316.9,159.6,303.7,144.3,301.7 M80.9,360.1
	c-1.3-1.3-2.1-3.2-2.1-5.1v-30c0-0.2,0.2-0.4,0.4-0.4h3.4c0.4,0,0.5-0.4,0.3-0.7l-13.3-13.3c-0.2-0.2-0.4-0.2-0.6,0L55.6,324
	c-0.3,0.2-0.1,0.7,0.3,0.7h3.4c0.2,0,0.4,0.2,0.4,0.4v30.6c0,4,3.2,7.2,7.1,7.2h15.7c0.4,0,0.5-0.4,0.3-0.7L80.9,360.1 M110.4,360.1
	c-1.3-1.3-2.1-3.2-2.1-5.1v-22.3c0-0.2,0.2-0.4,0.4-0.4h3.4c0.4,0,0.5-0.4,0.3-0.7L99,318.3c-0.2-0.2-0.4-0.2-0.6,0l-13.3,13.3
	c-0.3,0.2-0.1,0.7,0.3,0.7h3.4c0.2,0,0.4,0.2,0.4,0.4v22.9c0,4,3.2,7.2,7.2,7.2h15.7c0.4,0,0.5-0.4,0.3-0.7L110.4,360.1
	 M139.9,360.1c-1.3-1.3-2.1-3.2-2.1-5.1v-14.6c0-0.2,0.2-0.4,0.4-0.4h3.4c0.4,0,0.5-0.4,0.3-0.7L128.5,326c-0.2-0.2-0.4-0.2-0.6,0
	l-13.3,13.3c-0.3,0.3-0.1,0.7,0.3,0.7h3.4c0.2,0,0.4,0.2,0.4,0.4v15.2c0,4,3.2,7.2,7.2,7.2h15.7c0.4,0,0.5-0.4,0.3-0.7L139.9,360.1"
	/>
</svg>
